<svg width="28" height="28" viewBox="0 0 28 28" fill="none" xmlns="http://www.w3.org/2000/svg">
<g filter="url(#filter0_d_119_39)">
<path d="M18.4491 15.3547C18.6477 15.4365 18.8529 15.4999 19.0621 15.5443L15.8771 18.7236C15.3781 19.2207 14.7017 19.5 13.9963 19.5C13.291 19.5 12.6148 19.2208 12.1158 18.724C12.1158 18.724 12.1158 18.724 12.1157 18.7239C12.1156 18.7238 12.1155 18.7237 12.1154 18.7236L8.97585 15.5901C9.25146 15.547 9.52165 15.4713 9.78065 15.3643C10.2121 15.1861 10.6039 14.9243 10.9335 14.594C10.9337 14.5938 10.9339 14.5937 10.934 14.5935L14.0575 11.476C14.0745 11.4609 14.0966 11.4523 14.1198 11.4523C14.1429 11.4523 14.165 11.4608 14.182 11.4759L17.2954 14.5853C17.2955 14.5854 17.2956 14.5855 17.2956 14.5856C17.2957 14.5856 17.2957 14.5856 17.2957 14.5856C17.6256 14.9155 18.0176 15.1769 18.4491 15.3547Z" fill="black" stroke="black"/>
<path d="M19.0605 4.45389C19.2676 4.40933 19.4786 4.38337 19.6911 4.37651L19.0605 4.45389ZM19.0605 4.45389L15.8748 1.27735L15.8747 1.27728C15.6278 1.03095 15.3345 0.835471 15.0116 0.702075C14.6887 0.568678 14.3426 0.5 13.993 0.5C13.6434 0.5 13.2972 0.568678 12.9743 0.702075C12.6514 0.835471 12.3582 1.03095 12.1112 1.27728M19.0605 4.45389C18.8536 4.49842 18.6505 4.56154 18.4539 4.64275C18.0223 4.82106 17.6303 5.08307 17.3007 5.41365C17.3005 5.41387 17.3003 5.4141 17.3 5.41433L14.1813 8.52406C14.1663 8.53899 14.1456 8.54763 14.1238 8.54763C14.102 8.54763 14.0815 8.53905 14.0665 8.5242C14.0664 8.52415 14.0664 8.5241 14.0663 8.52406L10.936 5.40214C10.9359 5.40199 10.9357 5.40184 10.9356 5.4017C10.6058 5.0715 10.2137 4.80979 9.78212 4.63163L9.59134 5.0938L9.78212 4.63163C9.52275 4.52457 9.25217 4.44894 8.97616 4.40588L12.1112 1.27728M12.1112 1.27728L12.1113 1.2772L11.7584 0.923605L12.1112 1.27728Z" fill="black" stroke="black"/>
<mask id="path-3-inside-1_119_39" fill="white">
<path d="M23.1098 7.70678L20.8078 5.24904C20.7559 5.2717 20.7004 5.28364 20.6443 5.28422H19.5975C19.0528 5.28568 18.5306 5.51664 18.1445 5.9269L15.1448 9.12744C14.8747 9.41534 14.5086 9.57703 14.1269 9.57703C13.7452 9.57703 13.3791 9.41534 13.1089 9.12744L10.0978 5.91472C9.71182 5.50422 9.18965 5.273 8.64484 5.27137H7.35979C7.30683 5.2701 7.2545 5.25887 7.20518 5.23822L4.88856 7.70678C4.31956 8.31556 4 9.14045 4 10.0005C4 10.8605 4.31956 11.6854 4.88856 12.2942L7.20011 14.762C7.24932 14.741 7.30172 14.7298 7.35473 14.7289H8.64484C9.18964 14.7272 9.71179 14.496 10.0978 14.0855L13.1083 10.8715C13.6526 10.291 14.6012 10.291 15.1448 10.8715L18.1445 14.0734C18.5306 14.4836 19.0528 14.7146 19.5975 14.716H20.6443C20.7004 14.7165 20.7559 14.7284 20.8078 14.7512L23.1098 12.2935C23.392 11.9923 23.6159 11.6347 23.7686 11.2412C23.9213 10.8476 24 10.4258 24 9.99979C24 9.57379 23.9213 9.15197 23.7686 8.75841C23.6159 8.36485 23.392 8.00728 23.1098 7.70611"/>
</mask>
<path d="M23.1098 7.70678L20.8078 5.24904C20.7559 5.2717 20.7004 5.28364 20.6443 5.28422H19.5975C19.0528 5.28568 18.5306 5.51664 18.1445 5.9269L15.1448 9.12744C14.8747 9.41534 14.5086 9.57703 14.1269 9.57703C13.7452 9.57703 13.3791 9.41534 13.1089 9.12744L10.0978 5.91472C9.71182 5.50422 9.18965 5.273 8.64484 5.27137H7.35979C7.30683 5.2701 7.2545 5.25887 7.20518 5.23822L4.88856 7.70678C4.31956 8.31556 4 9.14045 4 10.0005C4 10.8605 4.31956 11.6854 4.88856 12.2942L7.20011 14.762C7.24932 14.741 7.30172 14.7298 7.35473 14.7289H8.64484C9.18964 14.7272 9.71179 14.496 10.0978 14.0855L13.1083 10.8715C13.6526 10.291 14.6012 10.291 15.1448 10.8715L18.1445 14.0734C18.5306 14.4836 19.0528 14.7146 19.5975 14.716H20.6443C20.7004 14.7165 20.7559 14.7284 20.8078 14.7512L23.1098 12.2935C23.392 11.9923 23.6159 11.6347 23.7686 11.2412C23.9213 10.8476 24 10.4258 24 9.99979C24 9.57379 23.9213 9.15197 23.7686 8.75841C23.6159 8.36485 23.392 8.00728 23.1098 7.70611" fill="black"/>
<path d="M20.8078 5.24904L21.5376 4.56543L21.055 4.05012L20.4078 4.3325L20.8078 5.24904ZM20.6443 5.28422V6.28428L20.6547 6.28417L20.6443 5.28422ZM19.5975 5.28422V4.28422L19.5948 4.28423L19.5975 5.28422ZM18.1445 5.9269L17.4163 5.24158L17.4149 5.24306L18.1445 5.9269ZM15.1448 9.12744L15.8741 9.81172L15.8745 9.81129L15.1448 9.12744ZM13.1089 9.12744L12.3793 9.81128L12.3797 9.81172L13.1089 9.12744ZM10.0978 5.91472L10.8274 5.23088L10.8263 5.22972L10.0978 5.91472ZM8.64484 5.27137L8.64784 4.27137H8.64484V5.27137ZM7.35979 5.27137L7.33576 6.27108L7.34778 6.27137H7.35979V5.27137ZM7.20518 5.23822L7.5915 4.31586L6.95111 4.04763L6.47599 4.55391L7.20518 5.23822ZM4.88856 7.70678L4.15936 7.02247L4.15799 7.02395L4.88856 7.70678ZM4 10.0005H3H4ZM4.88856 12.2942L4.15799 12.977L4.15871 12.9778L4.88856 12.2942ZM7.20011 14.762L6.47027 15.4457L6.94911 15.9569L7.59319 15.6816L7.20011 14.762ZM7.35473 14.7289V13.7289H7.34645L7.33817 13.729L7.35473 14.7289ZM8.64484 14.7289V15.7289L8.64797 15.7289L8.64484 14.7289ZM10.0978 14.0855L10.8263 14.7706L10.8276 14.7692L10.0978 14.0855ZM13.1083 10.8715L12.3788 10.1874L12.3784 10.1879L13.1083 10.8715ZM15.1448 10.8715L14.415 11.5551L14.4151 11.5552L15.1448 10.8715ZM18.1445 14.0734L17.4148 14.7571L17.4163 14.7587L18.1445 14.0734ZM19.5975 14.716L19.5948 15.716H19.5975V14.716ZM20.6443 14.716L20.6518 13.716H20.6443V14.716ZM20.8078 14.7512L20.4052 15.6666L21.0535 15.9517L21.5376 15.4348L20.8078 14.7512ZM23.1098 12.2935L22.3801 11.6097L22.38 11.6099L23.1098 12.2935ZM23.8397 7.02317L21.5376 4.56543L20.0779 5.93266L22.38 8.3904L23.8397 7.02317ZM20.4078 4.3325C20.4776 4.30207 20.5545 4.2851 20.6339 4.28428L20.6547 6.28417C20.8463 6.28217 21.0341 6.24133 21.2077 6.16558L20.4078 4.3325ZM20.6443 4.28422H19.5975V6.28422H20.6443V4.28422ZM19.5948 4.28423C18.7649 4.28644 17.9835 4.6389 17.4163 5.24158L18.8728 6.61222C19.0778 6.39438 19.3407 6.28491 19.6002 6.28422L19.5948 4.28423ZM17.4149 5.24306L14.4152 8.4436L15.8745 9.81129L18.8742 6.61075L17.4149 5.24306ZM14.4156 8.44317C14.3272 8.53742 14.2218 8.57703 14.1269 8.57703V10.577C14.7953 10.577 15.4222 10.2933 15.8741 9.81172L14.4156 8.44317ZM14.1269 8.57703C14.0319 8.57703 13.9266 8.53742 13.8381 8.44317L12.3797 9.81172C12.8315 10.2933 13.4584 10.577 14.1269 10.577V8.57703ZM13.8385 8.4436L10.8274 5.23088L9.36817 6.59857L12.3793 9.81128L13.8385 8.4436ZM10.8263 5.22972C10.2594 4.6267 9.47794 4.27386 8.64784 4.27137L8.64184 6.27136C8.90136 6.27214 9.1643 6.38174 9.36926 6.59973L10.8263 5.22972ZM8.64484 4.27137H7.35979V6.27137H8.64484V4.27137ZM7.38383 4.27166C7.45656 4.27341 7.52701 4.28884 7.5915 4.31586L6.81886 6.16059C6.98198 6.22891 7.1571 6.26679 7.33576 6.27108L7.38383 4.27166ZM6.47599 4.55391L4.15936 7.02247L5.61775 8.39109L7.93437 5.92253L6.47599 4.55391ZM4.15799 7.02395C3.40981 7.82442 3 8.89591 3 10.0005H5C5 9.38499 5.2293 8.80669 5.61913 8.38962L4.15799 7.02395ZM3 10.0005C3 11.105 3.40981 12.1765 4.15799 12.977L5.61913 11.6113C5.2293 11.1942 5 10.616 5 10.0005H3ZM4.15871 12.9778L6.47027 15.4457L7.92996 14.0784L5.6184 11.6105L4.15871 12.9778ZM7.59319 15.6816C7.52445 15.7109 7.44907 15.7275 7.37128 15.7288L7.33817 13.729C7.15438 13.7321 6.9742 13.7711 6.80704 13.8425L7.59319 15.6816ZM7.35473 15.7289H8.64484V13.7289H7.35473V15.7289ZM8.64797 15.7289C9.47796 15.7263 10.2593 15.3735 10.8263 14.7706L9.36935 13.4004C9.16431 13.6185 8.90131 13.7281 8.6417 13.7289L8.64797 15.7289ZM10.8276 14.7692L13.8381 11.5551L12.3784 10.1879L9.36796 13.4019L10.8276 14.7692ZM13.8377 11.5555C13.9872 11.3961 14.2667 11.3967 14.415 11.5551L15.8747 10.1879C14.9356 9.18532 13.318 9.18595 12.3788 10.1874L13.8377 11.5555ZM14.4151 11.5552L17.4148 14.7571L18.8743 13.3897L15.8746 10.1878L14.4151 11.5552ZM17.4163 14.7587C17.9835 15.3614 18.7649 15.7138 19.5948 15.716L19.6002 13.716C19.3407 13.7154 19.0778 13.6059 18.8728 13.388L17.4163 14.7587ZM19.5975 15.716H20.6443V13.716H19.5975V15.716ZM20.6368 15.716C20.5554 15.7154 20.4766 15.698 20.4052 15.6666L21.2104 13.8358C21.0352 13.7588 20.8454 13.7175 20.6518 13.7161L20.6368 15.716ZM21.5376 15.4348L23.8397 12.9771L22.38 11.6099L20.0779 14.0676L21.5376 15.4348ZM23.8395 12.9772C24.2113 12.5805 24.5029 12.113 24.7009 11.603L22.8364 10.8794C22.7288 11.1564 22.5728 11.4041 22.3801 11.6097L23.8395 12.9772ZM24.7009 11.603C24.8988 11.093 25 10.5484 25 9.99979H23C23 10.3032 22.9439 10.6023 22.8364 10.8794L24.7009 11.603ZM25 9.99979C25 9.4512 24.8988 8.90662 24.7009 8.39662L22.8364 9.1202C22.9439 9.39732 23 9.69639 23 9.99979H25ZM24.7009 8.39662C24.5029 7.88656 24.2113 7.41906 23.8395 7.02236L22.3801 8.38986C22.5728 8.5955 22.7288 8.84315 22.8364 9.1202L24.7009 8.39662Z" fill="black" mask="url(#path-3-inside-1_119_39)"/>
</g>
<defs>
<filter id="filter0_d_119_39" x="0" y="0" width="27.9999" height="27.9999" filterUnits="userSpaceOnUse" color-interpolation-filters="sRGB">
<feFlood flood-opacity="0" result="BackgroundImageFix"/>
<feColorMatrix in="SourceAlpha" type="matrix" values="0 0 0 0 0 0 0 0 0 0 0 0 0 0 0 0 0 0 127 0" result="hardAlpha"/>
<feOffset dy="4"/>
<feGaussianBlur stdDeviation="2"/>
<feComposite in2="hardAlpha" operator="out"/>
<feColorMatrix type="matrix" values="0 0 0 0 0 0 0 0 0 0 0 0 0 0 0 0 0 0 0.25 0"/>
<feBlend mode="normal" in2="BackgroundImageFix" result="effect1_dropShadow_119_39"/>
<feBlend mode="normal" in="SourceGraphic" in2="effect1_dropShadow_119_39" result="shape"/>
</filter>
</defs>
</svg>
